<?xml version="1.0" encoding="UTF-8" standalone="no"?>
<svg
    width="60"
    height="60"
    viewBox="0 0 16 16"
    version="1.1"
    fill="#5A5650"
    xmlns="http://www.w3.org/2000/svg"
    xmlns:svg="http://www.w3.org/2000/svg">
    <path
        data-id="bl"
        d="m 8.0000002,8.0000002 -1.12551,0.003 -0.80615,0.80615 c 0,-2e-5 5.1e-4,-0.002 5.1e-4,-0.002 h -0.004 l -0.96583,0.9658308 -0.15451,0.155029 -0.6563,0.656291 -0.15503,0.15452 -0.002,-0.002 -0.15451,0.15503 -3.93464006,3.93464 0.001,1.12138 1.12551006,-0.003 0.8056401,-0.80512 h 0.004 l 0.15813,-0.15865 0.8077099,-0.80718 0.15451,-0.15452 0.65629,-0.65629 0.15503,-0.15503 0.002,0.002 0.15452,-0.15451 3.93465,-3.9351608 z" />
    <path
        data-id="tl"
        d="m 8.0000002,7.9983202 -0.003,-1.12551 -0.80615,-0.80615 c 1e-5,-1e-5 0.001,2.1e-4 0.001,2.1e-4 l -1.4e-4,-0.004 -0.96583,-0.96583 -0.15503,-0.15451 -0.65629,-0.65629 -0.15451,-0.15503 0.002,-0.002 -0.15503,-0.15451 -3.93465,-3.93463999 -1.12138002,0.001 0.003,1.12550999 0.80513,0.80564 -1.4e-4,0.004 0.15865002,0.15812 0.80718,0.80772 0.15452,0.15451 0.65629,0.65629 0.15503,0.15503 -0.002,0.002 0.15451,0.15452 3.93517,3.93464 z" />
    <path
        data-id="b"
        d="m 8.0000002,8.0000002 -0.79376,0.798 1e-5,7.1403098 h 1.5875 l -10e-6,-7.1460998 z" />
    <path
        data-id="r"
        d="m 8.0000002,8.0000002 0.798,0.79376 7.1402998,-10e-6 v -1.5875 l -7.1460998,10e-6 z" />
    <path
        data-id="l"
        d="m 8,8 -0.798,-0.79376 -7.14033,10e-6 10e-6,1.5875 7.14611,-10e-6 z" />
    <path
        data-id="t"
        d="M 8,8 8.79376,7.20199 8.79375,0.0617 h -1.5875 l 1e-5,7.1461 z" />
    <path
        data-id="br"
        d="m 8.0000002,8.0000002 0.003,1.12552 0.80617,0.8061501 c -3e-5,0 -9.4e-4,-4.6e-4 -9.4e-4,-4.6e-4 v 0.004 l 0.9658297,0.9658297 0.15503,0.15451 0.6563001,0.6563 0.1545,0.15502 -0.002,0.002 0.15504,0.15451 3.93465,3.93465 1.12139,-0.001 -0.003,-1.12551 -0.8051,-0.80565 v -0.004 l -0.15865,-0.15814 -0.80718,-0.8077 -0.15453,-0.15451 -0.65628,-0.65629 -0.15504,-0.15503 0.002,-0.002 -0.15451,-0.15452 -3.9351701,-3.9346398 z" />
    <path
        data-id="tr"
        d="m 15.95696,0.05213024 -1.12551,0.003 -0.80615,0.80615 c 0,-2e-5 5.1e-4,-0.002 5.1e-4,-0.002 h -0.004 l -0.96583,0.96582996 -0.15451,0.15503 -0.65629,0.65629 -0.15503,0.15452 -0.002,-0.002 -0.15451,0.15503 -3.9346398,3.93464 0.001,1.12138 1.1255099,-0.003 0.80564,-0.80512 h 0.004 l 0.1581299,-0.15865 0.80771,-0.80718 0.15451,-0.15452 0.65629,-0.65629 0.15503,-0.15503 0.002,0.002 0.15452,-0.15451 3.93464,-3.93516 z" />
    <circle
        data-id="dot"
        cx="8" cy="8" r="1.8"
        style="opacity:0" />
</svg>
